<svg xmlns="http://www.w3.org/2000/svg" xmlns:svg="http://www.w3.org/2000/svg" id="Layer_1" width="894" height="270" x="0" y="0" version="1.1" viewBox="0 0 894 270" xml:space="preserve"><metadata id="metadata34"/><style id="style2" type="text/css"/><g id="g128" transform="translate(-8.148752,-12.944682)"><g style="font-style:normal;font-variant:normal;font-weight:700;font-stretch:normal;font-size:131.8710022px;line-height:1.25;font-family:'Nimbus Sans L';-inkscape-font-specification:'Nimbus Sans L, Bold';font-variant-ligatures:normal;font-variant-caps:normal;font-variant-numeric:normal;font-feature-settings:normal;text-align:start;letter-spacing:0;word-spacing:0;writing-mode:lr-tb;text-anchor:start;fill:#000;fill-opacity:1;stroke:none;stroke-width:2.47258139" id="text80-5" aria-label="BETA" transform="rotate(-34.76584,26.327563,-8.24194)"><path style="fill:#000;stroke-width:2.47258139" id="path82-0" d="m 343.27763,558.93536 h 43.25368 c 11.07717,0 18.46194,-2.10993 24.26427,-6.98916 5.80232,-4.87923 9.49471,-13.05523 9.49471,-20.70375 0,-9.49471 -5.14297,-17.01136 -15.95639,-23.34116 9.49471,-6.06607 13.1871,-11.60465 13.1871,-19.78065 0,-6.59355 -3.29678,-13.58272 -8.70349,-18.33007 -5.67045,-4.87923 -12.39587,-6.98917 -22.68181,-6.98917 h -42.85807 z m 19.78065,-79.65008 h 21.49497 c 9.0991,0 13.97832,3.82426 13.97832,10.94529 0,6.98916 -4.87922,10.81342 -13.97832,10.81342 h -21.49497 z m 0,38.24259 h 23.6049 c 9.62659,0 14.63769,4.35174 14.63769,12.52774 0,8.04414 -5.0111,12.39588 -14.63769,12.39588 h -23.6049 z"/><path style="fill:#000;stroke-width:2.47258139" id="path84-2" d="m 457.96006,517.52787 h 46.02298 v -16.48388 h -46.02298 v -21.75871 h 49.71537 V 462.8014 h -69.49602 v 96.13396 h 71.8697 v -16.48387 h -52.08905 z"/><path style="fill:#000;stroke-width:2.47258139" id="path86-9" d="m 566.61766,479.28528 h 28.08852 V 462.8014 h -77.01267 v 16.48388 h 29.1435 v 79.65008 h 19.78065 z"/><path style="fill:#000;stroke-width:2.47258139" id="path88-4" d="m 662.53115,539.55033 6.32981,19.38503 h 20.30813 L 655.9376,462.8014 h -21.89059 l -34.15459,96.13396 h 20.17627 l 6.46167,-19.38503 z m -5.40671,-16.48388 h -25.05549 l 12.52774,-37.58323 z"/></g><g style="font-style:normal;font-variant:normal;font-weight:700;font-stretch:normal;font-size:131.8710022px;line-height:1.25;font-family:'Nimbus Sans L';-inkscape-font-specification:'Nimbus Sans L, Bold';font-variant-ligatures:normal;font-variant-caps:normal;font-variant-numeric:normal;font-feature-settings:normal;text-align:start;letter-spacing:0;word-spacing:0;writing-mode:lr-tb;text-anchor:start;fill:red;fill-opacity:1;stroke:none;stroke-width:2.47258139" id="text80" aria-label="BETA" transform="rotate(-34.76584,15.176413,22.284294)"><path style="fill:red;stroke-width:2.47258139" id="path82" d="m 343.27763,558.93536 h 43.25368 c 11.07717,0 18.46194,-2.10993 24.26427,-6.98916 5.80232,-4.87923 9.49471,-13.05523 9.49471,-20.70375 0,-9.49471 -5.14297,-17.01136 -15.95639,-23.34116 9.49471,-6.06607 13.1871,-11.60465 13.1871,-19.78065 0,-6.59355 -3.29678,-13.58272 -8.70349,-18.33007 -5.67045,-4.87923 -12.39587,-6.98917 -22.68181,-6.98917 h -42.85807 z m 19.78065,-79.65008 h 21.49497 c 9.0991,0 13.97832,3.82426 13.97832,10.94529 0,6.98916 -4.87922,10.81342 -13.97832,10.81342 h -21.49497 z m 0,38.24259 h 23.6049 c 9.62659,0 14.63769,4.35174 14.63769,12.52774 0,8.04414 -5.0111,12.39588 -14.63769,12.39588 h -23.6049 z"/><path style="fill:red;stroke-width:2.47258139" id="path84" d="m 457.96006,517.52787 h 46.02298 v -16.48388 h -46.02298 v -21.75871 h 49.71537 V 462.8014 h -69.49602 v 96.13396 h 71.8697 v -16.48387 h -52.08905 z"/><path style="fill:red;stroke-width:2.47258139" id="path86" d="m 566.61766,479.28528 h 28.08852 V 462.8014 h -77.01267 v 16.48388 h 29.1435 v 79.65008 h 19.78065 z"/><path style="fill:red;stroke-width:2.47258139" id="path88" d="m 662.53115,539.55033 6.32981,19.38503 h 20.30813 L 655.9376,462.8014 h -21.89059 l -34.15459,96.13396 h 20.17627 l 6.46167,-19.38503 z m -5.40671,-16.48388 h -25.05549 l 12.52774,-37.58323 z"/></g></g></svg>